<svg width="20" height="16" fill="none" xmlns="http://www.w3.org/2000/svg"><path d="M19.75 1.96a8.015 8.015 0 01-2.302.619A3.987 3.987 0 0019.206.376a7.892 7.892 0 01-2.536.965A3.986 3.986 0 0013.75.078a3.996 3.996 0 00-3.996 3.999c0 .309.037.618.098.916A11.358 11.358 0 011.612.809a3.968 3.968 0 00-.544 2.018c0 1.388.705 2.611 1.781 3.33a4.031 4.031 0 01-1.807-.508v.05a3.997 3.997 0 003.204 3.923 4.2 4.2 0 01-1.052.136 5.34 5.34 0 01-.755-.061 4.004 4.004 0 003.736 2.773 8.01 8.01 0 01-4.962 1.708c-.335 0-.644-.012-.965-.05a11.317 11.317 0 006.138 1.794c7.35 0 11.372-6.09 11.372-11.374 0-.174 0-.347-.012-.52A8.607 8.607 0 0019.75 1.96z" fill="#435476"/></svg>