<svg width="20" height="20" viewBox="0 0 20 20" fill="none" xmlns="http://www.w3.org/2000/svg">
<path d="M10.0074 5.19249C7.34728 5.19249 5.2004 7.33937 5.2004 9.99953C5.2004 12.6597 7.34728 14.8066 10.0074 14.8066C12.6676 14.8066 14.8145 12.6597 14.8145 9.99953C14.8145 7.33937 12.6676 5.19249 10.0074 5.19249ZM10.0074 13.1237C8.28712 13.1237 6.88322 11.7198 6.88322 9.99953C6.88322 8.27921 8.28712 6.87531 10.0074 6.87531C11.7277 6.87531 13.1317 8.27921 13.1317 9.99953C13.1317 11.7198 11.7277 13.1237 10.0074 13.1237ZM15.0113 3.87531C14.3902 3.87531 13.8887 4.37687 13.8887 4.99796C13.8887 5.61906 14.3902 6.12062 15.0113 6.12062C15.6324 6.12062 16.134 5.6214 16.134 4.99796C16.1342 4.85048 16.1053 4.70441 16.0489 4.56812C15.9926 4.43183 15.9099 4.308 15.8056 4.20371C15.7013 4.09943 15.5775 4.01674 15.4412 3.96039C15.3049 3.90403 15.1588 3.87512 15.0113 3.87531ZM19.3777 9.99953C19.3777 8.70578 19.3895 7.42374 19.3168 6.13234C19.2442 4.63234 18.902 3.30109 17.8051 2.20421C16.7059 1.10499 15.377 0.76515 13.877 0.692494C12.5832 0.619838 11.3012 0.631557 10.0098 0.631557C8.71603 0.631557 7.434 0.619838 6.14259 0.692494C4.64259 0.76515 3.31134 1.10734 2.21447 2.20421C1.11525 3.30343 0.775404 4.63234 0.702748 6.13234C0.630092 7.42609 0.64181 8.70812 0.64181 9.99953C0.64181 11.2909 0.630092 12.5753 0.702748 13.8667C0.775404 15.3667 1.11759 16.698 2.21447 17.7948C3.31369 18.8941 4.64259 19.2339 6.14259 19.3066C7.43634 19.3792 8.71837 19.3675 10.0098 19.3675C11.3035 19.3675 12.5856 19.3792 13.877 19.3066C15.377 19.2339 16.7082 18.8917 17.8051 17.7948C18.9043 16.6956 19.2442 15.3667 19.3168 13.8667C19.3918 12.5753 19.3777 11.2933 19.3777 9.99953ZM17.3152 15.5261C17.1442 15.9527 16.9379 16.2714 16.6074 16.5995C16.277 16.93 15.9606 17.1362 15.534 17.3073C14.3012 17.7972 11.3738 17.687 10.0074 17.687C8.64103 17.687 5.71134 17.7972 4.47853 17.3097C4.05197 17.1386 3.73322 16.9323 3.40509 16.6019C3.07462 16.2714 2.86837 15.955 2.69728 15.5284C2.20978 14.2933 2.31994 11.3659 2.31994 9.99953C2.31994 8.63312 2.20978 5.70343 2.69728 4.47062C2.86837 4.04406 3.07462 3.72531 3.40509 3.39718C3.73556 3.06906 4.05197 2.86046 4.47853 2.68937C5.71134 2.20187 8.64103 2.31203 10.0074 2.31203C11.3738 2.31203 14.3035 2.20187 15.5363 2.68937C15.9629 2.86046 16.2817 3.06671 16.6098 3.39718C16.9402 3.72765 17.1465 4.04406 17.3176 4.47062C17.8051 5.70343 17.6949 8.63312 17.6949 9.99953C17.6949 11.3659 17.8051 14.2933 17.3152 15.5261Z" fill="white"/>
</svg>
