<svg width="20" height="16" viewBox="0 0 20 16" fill="none" xmlns="http://www.w3.org/2000/svg">
<path d="M19.7499 1.96016C19.0327 2.26953 18.2522 2.49219 17.4483 2.57891C18.283 2.08305 18.908 1.29969 19.2062 0.375783C18.4229 0.841695 17.5649 1.1684 16.6702 1.34141C16.2963 0.941626 15.844 0.623142 15.3415 0.405801C14.8391 0.188459 14.2973 0.0769179 13.7499 0.0781271C11.5351 0.0781271 9.75381 1.87344 9.75381 4.07656C9.75381 4.38594 9.79131 4.69531 9.85225 4.99297C6.53584 4.81953 3.57803 3.23516 1.61162 0.809377C1.25332 1.42137 1.06556 2.11819 1.06787 2.82735C1.06787 4.21485 1.77334 5.43828 2.84912 6.15781C2.21515 6.13285 1.59602 5.95859 1.04209 5.64922V5.69844C1.04209 7.64141 2.41553 9.25156 4.246 9.62188C3.90231 9.71115 3.54875 9.75682 3.19365 9.75781C2.9335 9.75781 2.6874 9.73203 2.43896 9.69688C2.94521 11.2813 4.41943 12.432 6.1749 12.4695C4.80146 13.5453 3.08115 14.1781 1.21318 14.1781C0.878027 14.1781 0.568652 14.1664 0.247559 14.1289C2.01943 15.2656 4.12178 15.9219 6.38584 15.9219C13.7358 15.9219 17.7577 9.83282 17.7577 4.54766C17.7577 4.37422 17.7577 4.20078 17.746 4.02735C18.5241 3.45781 19.2062 2.75235 19.7499 1.96016Z" fill="#435476"/>
</svg>
