<svg width="20" height="16" viewBox="0 0 20 16" fill="none" xmlns="http://www.w3.org/2000/svg">
<path d="M19.7572 1.96017C19.04 2.26954 18.2596 2.4922 17.4557 2.57892C18.2903 2.08306 18.9153 1.2997 19.2135 0.375791C18.4303 0.841703 17.5723 1.16841 16.6775 1.34142C16.3036 0.941634 15.8513 0.62315 15.3489 0.405808C14.8464 0.188467 14.3046 0.0769255 13.7572 0.0781347C11.5424 0.0781347 9.76113 1.87345 9.76113 4.07657C9.76113 4.38595 9.79863 4.69532 9.85957 4.99298C6.54316 4.81954 3.58535 3.23517 1.61895 0.809385C1.26065 1.42137 1.07288 2.1182 1.0752 2.82735C1.0752 4.21485 1.78066 5.43829 2.85644 6.15782C2.22247 6.13285 1.60334 5.9586 1.04941 5.64923V5.69845C1.04941 7.64142 2.42285 9.25157 4.25332 9.62189C3.90963 9.71116 3.55607 9.75683 3.20098 9.75782C2.94082 9.75782 2.69473 9.73204 2.44629 9.69689C2.95254 11.2813 4.42676 12.432 6.18223 12.4695C4.80879 13.5453 3.08848 14.1781 1.22051 14.1781C0.885352 14.1781 0.575977 14.1664 0.254883 14.1289C2.02676 15.2656 4.1291 15.9219 6.39316 15.9219C13.7432 15.9219 17.765 9.83282 17.765 4.54767C17.765 4.37423 17.765 4.20079 17.7533 4.02735C18.5314 3.45782 19.2135 2.75235 19.7572 1.96017Z" fill="white"/>
</svg>
